<mxfile host="app.diagrams.net" modified="2022-12-25T22:57:54.886Z" agent="5.0 (Windows NT 10.0; Win64; x64) AppleWebKit/537.36 (KHTML, like Gecko) Chrome/108.0.0.0 Safari/537.36" etag="K8TDj-brYsho0nDdgnxe" version="20.7.4" type="github">
  <diagram id="C5RBs43oDa-KdzZeNtuy" name="Page-1">
    <mxGraphModel dx="1434" dy="764" grid="1" gridSize="10" guides="1" tooltips="1" connect="1" arrows="1" fold="1" page="1" pageScale="1" pageWidth="827" pageHeight="1169" math="0" shadow="0">
      <root>
        <mxCell id="WIyWlLk6GJQsqaUBKTNV-0" />
        <mxCell id="WIyWlLk6GJQsqaUBKTNV-1" parent="WIyWlLk6GJQsqaUBKTNV-0" />
        <mxCell id="k4BjcxtB6IeMEJ6wrUtS-4" style="edgeStyle=orthogonalEdgeStyle;rounded=0;orthogonalLoop=1;jettySize=auto;html=1;exitX=1;exitY=0.25;exitDx=0;exitDy=0;entryX=0;entryY=0.25;entryDx=0;entryDy=0;fontColor=#000000;" edge="1" parent="WIyWlLk6GJQsqaUBKTNV-1" source="k4BjcxtB6IeMEJ6wrUtS-0" target="k4BjcxtB6IeMEJ6wrUtS-2">
          <mxGeometry relative="1" as="geometry" />
        </mxCell>
        <mxCell id="k4BjcxtB6IeMEJ6wrUtS-0" value="&lt;div style=&quot;box-sizing:border-box;width:100%;background:#e4e4e4;padding:2px;&quot;&gt;&lt;font color=&quot;#080808&quot;&gt;Snippets&lt;/font&gt;&lt;/div&gt;&lt;table style=&quot;width:100%;font-size:1em;&quot; cellpadding=&quot;2&quot; cellspacing=&quot;0&quot;&gt;&lt;tbody&gt;&lt;tr&gt;&lt;td&gt;&lt;font color=&quot;#000000&quot;&gt;PK&lt;/font&gt;&lt;/td&gt;&lt;td&gt;&lt;font color=&quot;#000000&quot;&gt;SnippetId&lt;/font&gt;&lt;/td&gt;&lt;/tr&gt;&lt;tr&gt;&lt;td&gt;&lt;font color=&quot;#000000&quot;&gt;&lt;span style=&quot;white-space: pre;&quot;&gt;	&lt;/span&gt;&lt;br&gt;&lt;/font&gt;&lt;/td&gt;&lt;td&gt;&lt;font color=&quot;#000000&quot;&gt;Content&lt;/font&gt;&lt;/td&gt;&lt;/tr&gt;&lt;tr&gt;&lt;td&gt;&lt;/td&gt;&lt;td&gt;&lt;font color=&quot;#000000&quot;&gt;Subject&lt;br&gt;Title&lt;br&gt;NormalizedTitle&lt;/font&gt;&lt;/td&gt;&lt;/tr&gt;&lt;/tbody&gt;&lt;/table&gt;" style="verticalAlign=top;align=left;overflow=fill;html=1;fillColor=#fafaf9;" vertex="1" parent="WIyWlLk6GJQsqaUBKTNV-1">
          <mxGeometry x="70" y="80" width="150" height="110" as="geometry" />
        </mxCell>
        <mxCell id="k4BjcxtB6IeMEJ6wrUtS-5" style="edgeStyle=orthogonalEdgeStyle;rounded=0;orthogonalLoop=1;jettySize=auto;html=1;exitX=0;exitY=0.25;exitDx=0;exitDy=0;entryX=1;entryY=0.5;entryDx=0;entryDy=0;fontColor=#000000;" edge="1" parent="WIyWlLk6GJQsqaUBKTNV-1" source="k4BjcxtB6IeMEJ6wrUtS-1" target="k4BjcxtB6IeMEJ6wrUtS-2">
          <mxGeometry relative="1" as="geometry" />
        </mxCell>
        <mxCell id="k4BjcxtB6IeMEJ6wrUtS-7" style="edgeStyle=orthogonalEdgeStyle;rounded=0;orthogonalLoop=1;jettySize=auto;html=1;exitX=1;exitY=0.25;exitDx=0;exitDy=0;entryX=0;entryY=0.25;entryDx=0;entryDy=0;fontColor=#000000;" edge="1" parent="WIyWlLk6GJQsqaUBKTNV-1" source="k4BjcxtB6IeMEJ6wrUtS-1" target="k4BjcxtB6IeMEJ6wrUtS-6">
          <mxGeometry relative="1" as="geometry" />
        </mxCell>
        <mxCell id="k4BjcxtB6IeMEJ6wrUtS-8" style="edgeStyle=orthogonalEdgeStyle;rounded=0;orthogonalLoop=1;jettySize=auto;html=1;exitX=1;exitY=0.25;exitDx=0;exitDy=0;entryX=0;entryY=0.5;entryDx=0;entryDy=0;fontColor=#000000;" edge="1" parent="WIyWlLk6GJQsqaUBKTNV-1" source="k4BjcxtB6IeMEJ6wrUtS-1" target="k4BjcxtB6IeMEJ6wrUtS-6">
          <mxGeometry relative="1" as="geometry" />
        </mxCell>
        <mxCell id="k4BjcxtB6IeMEJ6wrUtS-1" value="&lt;div style=&quot;box-sizing:border-box;width:100%;background:#e4e4e4;padding:2px;&quot;&gt;Tags&lt;/div&gt;&lt;table style=&quot;width:100%;font-size:1em;&quot; cellpadding=&quot;2&quot; cellspacing=&quot;0&quot;&gt;&lt;tbody&gt;&lt;tr&gt;&lt;td&gt;PK&lt;/td&gt;&lt;td&gt;TagId&lt;/td&gt;&lt;/tr&gt;&lt;tr&gt;&lt;td&gt;&lt;br&gt;&lt;/td&gt;&lt;td&gt;Name&lt;br&gt;NormalizedName&lt;/td&gt;&lt;/tr&gt;&lt;tr&gt;&lt;td&gt;&lt;/td&gt;&lt;td&gt;Description&lt;/td&gt;&lt;/tr&gt;&lt;/tbody&gt;&lt;/table&gt;" style="verticalAlign=top;align=left;overflow=fill;html=1;fontColor=#080808;fillColor=#f4f1f8;" vertex="1" parent="WIyWlLk6GJQsqaUBKTNV-1">
          <mxGeometry x="490" y="80" width="180" height="90" as="geometry" />
        </mxCell>
        <mxCell id="k4BjcxtB6IeMEJ6wrUtS-2" value="&lt;div style=&quot;box-sizing:border-box;width:100%;background:#e4e4e4;padding:2px;&quot;&gt;SnippetTag&lt;/div&gt;&lt;table style=&quot;width:100%;font-size:1em;&quot; cellpadding=&quot;2&quot; cellspacing=&quot;0&quot;&gt;&lt;tbody&gt;&lt;tr&gt;&lt;td&gt;PK FK&lt;br&gt;PK FK&lt;/td&gt;&lt;td&gt;SnippetsId&lt;br&gt;TagsId&lt;/td&gt;&lt;/tr&gt;&lt;tr&gt;&lt;td&gt;&lt;br&gt;&lt;/td&gt;&lt;td&gt;&lt;br&gt;&lt;/td&gt;&lt;/tr&gt;&lt;/tbody&gt;&lt;/table&gt;" style="verticalAlign=top;align=left;overflow=fill;html=1;fontColor=#000000;fillColor=#fafaf9;" vertex="1" parent="WIyWlLk6GJQsqaUBKTNV-1">
          <mxGeometry x="270" y="80" width="180" height="90" as="geometry" />
        </mxCell>
        <mxCell id="k4BjcxtB6IeMEJ6wrUtS-6" value="&lt;div style=&quot;box-sizing:border-box;width:100%;background:#e4e4e4;padding:2px;&quot;&gt;RelatedTags&lt;/div&gt;&lt;table style=&quot;width:100%;font-size:1em;&quot; cellpadding=&quot;2&quot; cellspacing=&quot;0&quot;&gt;&lt;tbody&gt;&lt;tr&gt;&lt;td&gt;PK FK&lt;/td&gt;&lt;td&gt;TagId&lt;/td&gt;&lt;/tr&gt;&lt;tr&gt;&lt;td&gt;PK FK&lt;/td&gt;&lt;td&gt;SecondTagId&lt;/td&gt;&lt;/tr&gt;&lt;tr&gt;&lt;td&gt;&lt;/td&gt;&lt;td&gt;UserProvidedStrength&lt;br&gt;TimesChosen&lt;/td&gt;&lt;/tr&gt;&lt;/tbody&gt;&lt;/table&gt;" style="verticalAlign=top;align=left;overflow=fill;html=1;fontColor=#000000;fillColor=#fafaf9;" vertex="1" parent="WIyWlLk6GJQsqaUBKTNV-1">
          <mxGeometry x="750" y="80" width="180" height="90" as="geometry" />
        </mxCell>
        <mxCell id="k4BjcxtB6IeMEJ6wrUtS-9" value="&lt;div style=&quot;box-sizing:border-box;width:100%;background:#e4e4e4;padding:2px;&quot;&gt;Documents&lt;/div&gt;&lt;table style=&quot;width:100%;font-size:1em;&quot; cellpadding=&quot;2&quot; cellspacing=&quot;0&quot;&gt;&lt;tbody&gt;&lt;tr&gt;&lt;td&gt;PK&lt;/td&gt;&lt;td&gt;DocumentId&lt;/td&gt;&lt;/tr&gt;&lt;tr&gt;&lt;td&gt;&lt;br&gt;&lt;/td&gt;&lt;td&gt;Title&lt;br&gt;NormalizedTitle&lt;/td&gt;&lt;/tr&gt;&lt;tr&gt;&lt;td&gt;&lt;/td&gt;&lt;td&gt;Subject&lt;br&gt;Content&lt;/td&gt;&lt;/tr&gt;&lt;/tbody&gt;&lt;/table&gt;" style="verticalAlign=top;align=left;overflow=fill;html=1;fontColor=#000000;fillColor=#fafaf9;" vertex="1" parent="WIyWlLk6GJQsqaUBKTNV-1">
          <mxGeometry x="750" y="230" width="180" height="110" as="geometry" />
        </mxCell>
      </root>
    </mxGraphModel>
  </diagram>
</mxfile>
